<svg xmlns="http://www.w3.org/2000/svg" version="1.1" width="600px" height="600px" viewBox="0 0 200 200" style="overflow:hidden!important;"><g id="svga-group-wrapper"><g id="svga-group-backs-single"></g><g id="svga-group-humanwrap-move" transform="matrix(1,0,0,1,0,0)"><g id="svga-group-humanwrap"><g id="svga-group-hair-back-move" transform="matrix(1,0,0,1,0,0)"><g id="svga-group-hair-back"><path id="SvgjsPath16309" d="M73.5 42.9 55 55.6l-4.3 23.1v42.8l-1.8 11-4.9 9.2 7.7-9.2-4.9 15.1 6.4-11.5 2.6-6.1-.5 13.6s-3.3 11.5-2.8 10.8 5.1-10.8 5.1-10.8l3.6-9.5-1.3 11.3-2.8 11 4.9-8.7-1.8 9.7 4.9-8.7 3.8-9.2-.8 11-1.3 8.2 3.8-8.7 1.8-9.2.5 9.5-1 10 2.8-7.7 1.3 8.2 6.2-11.8 38.7.3 3.1 10.5.5-11.8 2.1 7.9 3.3 2.1-2.3-4.6-1-10.2 5.6 10.2 4.4 3.6-3.3-5.4-2.6-10.5 4.9 9.5 3.3 2.3-3.3-7.7-.3-12.3 4.9 13.1 1 5.6s1-5.6.8-6.9c-.3-1.3-3.1-14.1-3.1-14.1l6.7 16.1 2.1 1.3-5.4-24.3 5.6 14.6 5.4 7.7-4.9-13.6-1.3-10.8 4.6 12.8s-3.3-22-3.3-23.3S147 82 147 82l-.4-17.4-32.7-27.1-40.4 5.4z" fill="#221612" stroke-width="none" opacity="1" stroke="none"></path></g></g><g id="svga-group-humanbody-back"><path id="SvgjsPath16213" d="m170 180.3-27.3-6.9-18-9.9-1.5-28.2H76.8l-1.5 28.2-18 9.9-27.3 6.9-9.1 19.7-3 20h164.2l-3-20z" fill="#f0c7b1" stroke-width="none" opacity="1" stroke="none"></path><path id="SvgjsPath16214" d="m76.8 135.3-1.5 28.2-18 9.9-27.3 6.9-9.1 19.7-3 20h14.6v-20l2.7-17.7 23.8-6.4 24.7-8.3 3.5-32.3z" fill="#d19271" stroke-width="none" opacity="1" stroke="none"></path></g><g id="svga-group-chinshadow-single"><path id="SvgjsPath16209" d="m122.4 140.2 1-1-.2-3.9H76.8l-.5 9.2 13.8 13.8h14.3z" fill="#c27b55" stroke-width="none" opacity="1" stroke="none"></path></g><g id="svga-group-humanbody-front"><path id="SvgjsPath16215" d="m92.8 168.3 2 7.9 6.9 4.6s-8.5-3-8.7-3.6c-.2-.6-.2-8.9-.2-8.9z" fill="#d19271" stroke-width="none" opacity="1" stroke="none"></path></g><g id="svga-group-clothes-single"><path id="SvgjsPath16092" d="m184.7 220-8.1-35.4-4.8-3.5-1.5-2-17.6-6.8-8.6-15.9-3.8-1.6-7.3-9-9.4-3.1.6 11-1.3 10.1-8.9 9.1-8.1 9.8-2.5 5-1.7-3.2-4.5-3.8-11.2-7.8-8.9-9.1-1.3-10.1.6-11-9.4 3.1-7.3 9-3.8 1.6-8.6 15.9-17.6 6.8-1.5 2-4.8 3.5-8.1 35.4z" fill="#ffffff" stroke-width="none" opacity="1"></path><path id="SvgjsPath16093" d="m134.2 188.8-15 3.8-9.9.2-.1-1.7 1.3-.1-.7-2.3-3.2.3-.1 2.3.8-.1v1.6h-2.1l2.1.2.1 5.9-.7 7.4 1.6 7.5.3 4.8 2.6-1-.3-5.1-2-6.6.9-7.3-.3-5.6 9.7.7 15.8-4.1 16-12.2 2-5.3-3.2 4.1-15.6 12.6zm-32.2 4.3-2.5-.2.2-1.8.6.1 1.2-2.2-3.3-2.3-2 1.9 1.2 2.3h.1v1.9l-1.5-.1-26-6.9-15.8-11 1.9-11L59 160l11 18.7 17.7 7.2-14.8-7.9-8.1-12.4 2.2-19.8-7.2 8.9-3.8 1.7-8.6 15.8-17.7 6.8-1.5 2-4.8 3.5-8.1 35.5h10.2l1.3-14.3 3.3-18.1 2.9 2.6 2.6 13.9 1.2 15.9v-16.2l-2.6-15.3-2.2-4.3 1.4-1.7 16.7-6L69 187.3l26.8 6.2 1.5-.1-.1 3.4 1.4 9.9s-3 9.8-2.8 9.9c.3.2 1.7 2.8 1.8 2.6.1-.3 3.5-12.5 3.5-12.5l-1.9-10.4.3-3.1 2.5-.1zm-26.2-39.4.6-10.8-4 5.1-.7 8.4 5.4 7.5-1.3-10.2zm49.1 11 6.7-6.9-.7-10.8-7.3-4.3.6 11-1.3 10.2-8.9 9.1-8.1 9.8-2.5 5 6.5-8.5 15-14.6zm-18.1 22.4 22.9-5 11.2-13.4 3.2-12.3-3.8-1.7-2.4 13-8.6 13.1-22.5 6.3zm56.5 9.7.8 21.6.5-20.4 4.5-13.1-5.8 11.9z" fill="#f0f0f0" stroke-width="none" opacity="1"></path><path id="SvgjsPath16094" d="m137.4 165.7 1.2-10.5-6-6.2 1.4 10.3-10.3 16.1-14 8.7 18.6-4.5 9.1-13.9zm13.6 6.2-6.2-10.1c.2.6-2.1 9.5-2.1 9.5l-10.3 12.4-15.5 7.2 16.7-3.1 15.7-12.6 1.7-3.3zm24.8 14-3.7-1.9-2.3 5.6 3.9 9.3 3.9 19.2 4.1.2-5.9-32.4zm-7.7-6.5-14.4-4.8-2.5 5-8.3 5.6 19.4.6 4.5 1.2 3.7-5.6-2.4-2zM85 175.6l-10.1-10.3-3.7-7.4-1.4.6 3.1 11.6 11.6 9.1 14.4 5.6 3.1 3.9-3.3-5.6-13.7-7.5zm43.1-12.5-16.7 16.1-6.6 8.5 13.4-11.6 9.9-13z" fill="#ffffff" stroke-width="none" opacity="1"></path></g><g id="svga-group-head" transform="matrix(1,0,0,1,0,0)"><g id="svga-group-ears-left-move" transform="matrix(1,0,0,1,0,0)"><g id="svga-group-ears-left"><path id="SvgjsPath16107" d="m64.4 98.3-5.3-9.7-7-.9-2 7.2.4 8.9 7 11.4 6.1 4.5 3.8-11.6z" fill="#f0c7b1" stroke-width="none" opacity="1" stroke="none"></path><path id="SvgjsPath16108" d="m58.4 101.2-4.1-9.8-1.9 5.1.4 5 2.6 6.1-1.6-9.4 1.5-.7 1.3 10.8 2 2.1z" fill="#d19271" stroke-width="none" opacity="1" stroke="none"></path><path id="SvgjsPath16109" d="m60.7 101-3.2-11.6-5.4-1.7 7 .9 5.3 9.7 3 9.8-3.8 11.6-6.1-4.5 3.6.7z" fill="#e1ac8f" stroke-width="none" opacity="1" stroke="none"></path></g></g><g id="svga-group-ears-right-move" transform="matrix(1,0,0,1,0,0)"><g id="svga-group-ears-right"><path id="SvgjsPath16110" d="m135.6 98.3 5.3-9.7 7-.9 2 7.2-.4 8.9-7 11.4-6.1 4.5-3.8-11.6z" fill="#f0c7b1" stroke-width="none" opacity="1" stroke="none"></path><path id="SvgjsPath16111" d="m141.6 101.2 4.1-9.8 1.9 5.1-.4 5-2.6 6.1 1.6-9.4-1.5-.7-1.3 10.8-2 2.1z" fill="#d19271" stroke-width="none" opacity="1" stroke="none"></path><path id="SvgjsPath16112" d="m139.3 101 3.2-11.6 5.4-1.7-7 .9-5.3 9.7-3 9.8 3.8 11.6 6.1-4.5-3.6.7z" fill="#e1ac8f" stroke-width="none" opacity="1" stroke="none"></path></g></g><g id="svga-group-faceshape-wrap"><g id="svga-group-faceshape-single"><path id="SvgjsPath16195" d="M138.1 60c-6.9-11.6-19.7-19.5-19.7-19.5-7.2-1.5-18.4-2.3-18.4-2.3s-11.1.8-18.4 2.3c0 0-12.8 7.9-19.7 19.5 0 0-5.1 14.5-5.3 24.8l1.2 18.7 9.1 23.5 8 7.6 18 18.1h14.2l18-18.1 8-7.6 9.1-23.5 1.2-18.7c-.2-10.3-5.3-24.8-5.3-24.8z" fill="#f0c7b1" stroke-width="none" opacity="1" stroke="none"></path><path id="SvgjsPath16196" d="m93.2 150.3-24.4-24.7-7.7-23.7.3-18 4.3-22.1 17.4-18 16.7-4 18.6.7c-7.2-1.5-18.4-2.3-18.4-2.3s-11.1.8-18.4 2.3c0 0-12.8 7.9-19.7 19.5 0 0-5.1 14.5-5.3 24.8l1.2 18.7 9.1 23.5 8 7.6 18 18.1h14.2l18-18.1 8-7.6-27 23.4H93.2v-.1z" fill="#d19271" stroke-width="none" opacity="1" stroke="none"></path></g></g><g id="svga-group-mouth-single-move" transform="matrix(1,0,0,1,0,0)"><g id="svga-group-mouth-single"><path id="SvgjsPath16335" d="m111.71 128.99-5.84-1.83-3.28-.34h-5.18l-3.28.34-5.68 1.83-2.35 1 1.57 2.22 7.2 3.17h10.26l7.2-3.17 1.57-2.22z" fill="#da7c87" stroke-width="none" opacity="1" transform="translate(0 2)"></path><path id="SvgjsPath16336" d="m83.15 129.56 6.2 1.7h19.9l7.6-2.1-8.3 1.1h-19.3z" fill="#cb5f6c" stroke-width="none" opacity="1" transform="translate(0 2)"></path></g></g><g id="svga-group-eyes-left-move" transform="matrix(1,0,0,1,0,0)"><g id="svga-group-eyes-left"><g id="svga-group-eyesback-left"><path id="SvgjsPath16151" d="M91.2 95.7 86 91.1l-9 .1-7 3.8s5.8 4.3 7.2 4.9l8.8-.4 5.2-3.8z" fill="#ffffff" stroke-width="none" opacity="1"></path></g><g id="svga-group-eyesiriswrapper-left" transform="matrix(1,0,0,1,0,0)"><g id="svga-group-eyesiriscontrol-left" transform="matrix(1,0,0,1,0,0)"><g id="svga-group-eyesiris-left"><path id="SvgjsPath16230" d="m82.2 100.2-5.5-2-1-5.8 4.5-3.8 5.5 2.1 1 5.7z" fill="#421411" stroke-width="none" opacity="1"></path><path id="SvgjsPath16231" d="m78.2 95.4.6-3.1 3-1 2.4 2.1-.7 3.1-3 1z" fill="#000000" stroke-width="none" opacity="1"></path><path id="SvgjsPath16232" d="m78 91.7 2.2 2.1.6-.4-1.2-2.7z" fill="#ffffff" stroke-width="none" opacity="1"></path><path id="SvgjsPath16233" d="m82.1 96.4.5 1 .8-.4-.4-1z" fill="#ffffff" stroke-width="none" opacity="1"></path></g></g></g><g id="svga-group-eyesfront-left"><path id="SvgjsPath16159" d="M67.1 89.3v11.9l7.9 8.4h11.2l7.9-8.4V89.3l-7.9-8.4H75l-7.9 8.4zm3 5.7 7-3.8 9-.1 5.1 4.6-5.2 3.9-8.8.4c-1.3-.8-7.1-5-7.1-5z" fill="#f0c7b1" stroke-width="none" opacity="1" stroke="none"></path><path id="SvgjsPath16160" d="m91.7 96.1-1.2-.6-4.7-4.1H77l-7.2 4-1 .2 7.9-5 9.6-.1z" fill="#000000" stroke-width="none" opacity="1" stroke="none"></path><path id="SvgjsPath16161" d="m90.8 94-4-4.1-9.8-.1-8.1 3.6 8.1-3.1h9.7z" fill="#e1ac8f" stroke-width="none" opacity="1" stroke="none"></path></g></g></g><g id="svga-group-eyes-right-move" transform="matrix(1,0,0,1,0,0)"><g id="svga-group-eyes-right"><g id="svga-group-eyesback-right"><path id="SvgjsPath16152" d="m108.8 95.7 5.1-4.6 9 .1 7 3.8s-5.8 4.3-7.2 4.9l-8.8-.4-5.1-3.8z" fill="#ffffff" stroke-width="none" opacity="1"></path></g><g id="svga-group-eyesiriswrapper-right" transform="matrix(1,0,0,1,0,0)"><g id="svga-group-eyesiriscontrol-right" transform="matrix(1,0,0,1,0,0)"><g id="svga-group-eyesiris-right"><path id="SvgjsPath16234" d="m119.8 100.2-5.5-2-1-5.8 4.5-3.8 5.5 2.1 1 5.7z" fill="#421411" stroke-width="none" opacity="1"></path><path id="SvgjsPath16235" d="m115.8 95.4.7-3.1 3-1 2.3 2.1-.6 3.1-3 1z" fill="#000000" stroke-width="none" opacity="1"></path><path id="SvgjsPath16236" d="m115.7 91.7 2.2 2.1.6-.4-1.2-2.7z" fill="#ffffff" stroke-width="none" opacity="1"></path><path id="SvgjsPath16237" d="m119.7 96.4.6 1 .8-.4-.4-1z" fill="#ffffff" stroke-width="none" opacity="1"></path></g></g></g><g id="svga-group-eyesfront-right"><path id="SvgjsPath16162" d="M125 80.8h-11.2l-7.9 8.4v11.9l7.9 8.4H125l7.9-8.4V89.3l-7.9-8.5zm-2.3 19.1-8.8-.4-5.1-3.8 5.1-4.6 9 .1 7 3.8s-5.8 4.2-7.2 4.9z" fill="#f0c7b1" stroke-width="none" opacity="1" stroke="none"></path><path id="SvgjsPath16165" d="m108.3 96.1 1.2-.6 4.7-4.1h8.8l7.2 4 1 .2-7.9-5-9.6-.1z" fill="#000000" stroke-width="none" opacity="1" stroke="none"></path><path id="SvgjsPath16166" d="m109.2 94 4-4.1 9.8-.1 8.1 3.6-8.1-3.1h-9.7z" fill="#e1ac8f" stroke-width="none" opacity="1" stroke="none"></path></g></g></g><g id="svga-group-facehighlight-single"></g><g id="svga-group-eyebrows-left-move" transform="matrix(1,0,0,1,0,0)"><g id="svga-group-eyebrows-left-rotate" transform="matrix(1,1.7453292519943295e-9,-1.7453292519943295e-9,1,1.4451326535436237e-7,-1.3849188462700113e-7)"><g id="svga-group-eyebrows-left"><path id="SvgjsPath16070" d="M74.2 77.6 71 79l-5 9 8.5-4.6 17.3 3.7.9-6z" fill="#2a232b" stroke-width="none" opacity="1"></path><path id="SvgjsPath16071" d="m87.9 84-1.2-4-1.7-.4 2.9 4.4zM73 78.2l5.6 4.6-4.4-5.2-1.2.6zm6.9.5 3.8 5-1.9-4.6-1.9-.4zm-11.7 5.4 2.7-1.5-2.1.5-.6 1zm14.7-4.8 1.7 1.9-.5-1.7-1.2-.2zm-12.4.7 3.8.8L71 79l-.5 1zm16.6.1 3.5 5.2-1.4-4.7-2.1-.5z" fill="#3a353a" stroke-width="none" opacity="1"></path></g></g></g><g id="svga-group-eyebrows-right-move" transform="matrix(1,0,0,1,0,0)"><g id="svga-group-eyebrows-right-rotate" transform="matrix(1,1.7453292519943295e-9,-1.7453292519943295e-9,1,1.4451326535436237e-7,-2.1057397248114285e-7)"><g id="svga-group-eyebrows-right"><path id="SvgjsPath16072" d="m107.3 81.1.9 6 17.3-3.7L134 88l-5-9-3.2-1.4z" fill="#2a232b" stroke-width="none" opacity="1"></path><path id="SvgjsPath16073" d="m115 79.6-1.7.3-1.2 4 2.9-4.3zm10.8-2-4.4 5.2 5.6-4.6-1.2-.6zm-7.6 1.5-1.9 4.6 3.8-5-1.9.4zm12.9 4-2.1-.5 2.7 1.5-.6-1zm-15.2-3.6-.5 1.7 1.7-1.9-1.2.2zM129 79l-3.2 1.8 3.8-.8-.6-1zm-18.2 1.5-1.4 4.7 3.5-5.2-2.1.5z" fill="#3a353a" stroke-width="none" opacity="1"></path></g></g></g><g id="svga-group-beardwrap"><g id="svga-group-beard-single-move" transform="matrix(1,0,0,1,0,0)"><g id="svga-group-beard-single"><path id="SvgjsPath16060" d="m138.9 99.3-3.6 12.8L129 126l-3.5.6-2.2-4.8-3.7-2.2-9.7-.6-8.9 1.5h-2l-9-1.5-9.7.6-3.7 2.2-2.2 4.8-3.4-.6-6.2-13.9-3.7-12.8-2.3-.3-3.1 37.1 9.7 15 12.8 12.2 13.3 4.9h17.1l13.3-4.9 12.8-12.2 9.7-15 .9-17.1-4-20-2.4.3zm-21.8 38.4-9.2 7.5-5.1 1.5h-5.6l-5.1-1.5-9.2-7.5-.4-9.8 1.9-1.3 10-1h11.2l10 1 1.9 1.3-.4 9.8z" fill="#201612" stroke-width="none" opacity="1"></path><path id="SvgjsPath16061" d="M74.3 142.7c.1 1.4 3.6 14.7 3.6 14.7l-1.2.1-1.4.4-2.6-4.6-1.6.5-3.1-6.1-1.2.9-2.6-12-1.7.4-1.3-19.9-.2-17.8-2.2-.3-4.1 18.2 1 18.9 9.7 15 12.8 12.2 13.3 4.9h17.1l13.3-4.9 12.8-12.2-6.9 4.9-6.2 5.2-.7-.9-8.1 4.2-.4-1.6-4.9 1.9-6.8-.8-1.2.8-6-2.2-2.1.9-5.3-3.8-3.8-.3-3.1-8.6.1-1.7-1.9 1v-9.5l-1.7.9.9-11.4-1.3.8.9-4.6.4 1.4 2.7-5.3 11.1-1.6s9.1 1.8 9.5 1.8 10.1-3.7 10.1-3.7l-8.9 1.5H99l-9-1.4-9.7.6-3.7 2.2-2.2 4.8s-.2 14.6-.1 16.1zm33.2-18.1-7-.6-7.2.8h-10l-2.5 2.1 1.8 5.1-.2-4.1 1.9-1.3 10-1h11.2l10 1 1.9 1.3-.4 9.8-9.2 7.6-5.1 1.5h-5.6l-5.1-1.5 1.4 1.6 2.2.4 3.4 1.4 1.6-.5 2.7.9 3-2.1 2.1 1.3 1.6-2.7 8.6-7.1 1.2-11.1-1-2.5-11.3-.3zm21.3 5.1s.4-2.9.2-3.7l-1.5.2 1.3 3.5zm6.4-17.6-5.1 11.3c.8-1.4 1.8-2.8 1.8-2.8l3.4-6.8 2.9-9 3.1-6-2.4.4-3.7 12.9zm-11 48.9 1.5-4.4-1.7 1.4 2.1-7.2-1 1.3 1.3-7.6-.4-2.3-.3-13.9-.4 3-.5-1.3-.1 14.7-.9-1.2-1 6.8-1.7 7.1-.8-.4-5.9 7.1 1.9 1.1 5.6-2.1 2.3-2.1z" fill="#110a08" stroke-width="none" opacity="1"></path></g></g></g><g id="svga-group-mustache-single-move" transform="matrix(1,0,0,1,0,0)"><g id="svga-group-mustache-single"></g></g><g id="svga-group-nose-single-move" transform="matrix(1,0,0,1,0,0)"><g id="svga-group-nose-single"><path id="SvgjsPath16267" d="m96.12 99.91-.45 6.4-5.78 8.87 2.98 2.25 1.63-2.02 4.32 3.82h2.41l4.27-3.82 1.57 1.96 3.15-2.19-5.79-8.92-.56-6.46-3.82-1.63z" fill="#f0c7b1" stroke-width="none" opacity="1" transform="translate(0 1)" stroke="none"></path><path id="SvgjsPath16268" d="m104.86 106.44-1.95-15.67 1.1 14.55-.86-.22 6.58 10.06-2.34 1.73-1.28-1.51.28-1.34-5.15 4.47h-2.4l-5.15-4.47.29 1.34-1.29 1.51-2.34-1.73 6.59-10.06-.86.22 1.33-22.81-2.19 23.93-5.82 8.83 3.81 2.79 1.44-2.01 4.19 3.91h2.4l4.2-3.91 1.43 2.01 3.81-2.79z" fill="#d19271" stroke-width="none" opacity="1" transform="translate(0 1)" stroke="none"></path><path id="SvgjsPath16269" d="m96.15 113.17 2.37 1.46 3.1.06 2.55-1.16-.3-1.76-3.59-.6-3.94.66z" fill="#f8d5c3" stroke-width="none" opacity="1" transform="translate(0 1)" stroke="none"></path></g></g><g id="svga-group-hair-front"><path id="SvgjsPath16306" d="M79.5 54.5 67 63l-6.3 29.7s1.6 32.2 1.4 33.3c-.3 1.1-8.7 15.5-8.7 15.5l5.5-16.9-3-36 .3 32.7-3.3 12.3 1.4-20.4-1.6-35.7L55 55.6l8.7-10.9 9.3-3 12.3-13.9 21.3-3L136 38.4s10.4 25.4 10.6 26.2c.3.8-1.9 23.2-1.9 23.2l-4.9 21.3.6 19.9 4.9 16.1-9.8-15.5-2.2-12.5.8 13.4 3 13.6-5.7-13.9-2.2-20.2 5.7-42.5-8.2-8.5-7.6-5.5-14.4 3H88.5l-9-2z" fill="#31241f" stroke-width="none" opacity="1" stroke="none"></path><path id="SvgjsPath16307" d="m97.9 52.8-.2-13.1 15.4-6 14.1 6.8 6.9 9.1.8 8.9-3.3-9.3-7.5-7.3-12.7-3.9-10.2 4.8-3.3 10zm-8.1 1.9-4-4.6 7.5-11.8-4.6 11.4 1.1 5zm-7.9-13.5 5.8-9.4L107 26l29 12.5-28.4-10.3L88.9 34l-7 7.2zM139 57.8l2.3 13.1-5.8 36 1.7 22.2 3.7 6.9-2.1-7.7-.6-21.8 6-36.4-5.2-12.3zM75.2 52l-13.9 8.9L58 90l5.4-28 11.8-10z" fill="#392c27" stroke-width="none" opacity="1" stroke="none"></path><path id="SvgjsPath16308" d="m88.5 56.4-4.6-5.8L92.7 37l20.8-4.8 13.7 7.2 8.4 9.4-7.8-10.3-14.8-8-22 5.3-10.3 14.8 3.9 5 3.9.8zm-9-1.9-3.1-5L85.8 31l20.7-6.1-21.3 3L73 41.7l.6 7.8 5.9 5zm-7.6-8.9L57.6 56.1l-2.7 21.8.8 6.7.6-7.3 3.4-20.8 12.2-10.9zm7.6 8.9-14.2 7.6-6.1 30.3 2.7 22.2-.5-23.4 6.6-28 11.5-8.7zm56-4.3 2.6 16-6.1 37.9 1.3 12.9-2.7-12.1 6-39.5-1.1-15.2zm-30.9 6.2.2-10.2 10.2-6.4 14.8 8.9 5.1 12.5v6l-1.6-6.8-5.8-10.8-12.9-6.5-8.1 4.5-1.9 8.8zm14.5-3 5-2.7 5.7 8.1 1.9 4.5-3.4-4.9-4.7-5.6-4.5.6z" fill="#291d18" stroke-width="none" opacity="1" stroke="none"></path></g><g id="svga-group-glasses-single-move" transform="matrix(1,0,0,1,0,0)"><g id="svga-group-glasses-single"></g></g></g></g></g><rect id="svga-credit-rect" width="200" height="15" x="0" y="185" fill="#ecf0f1" opacity="0.5" style="display: none;"></rect><text id="svga-credit-text" font-family="Avenir Next, Roboto, Helvetica, Arial, sans-serif" font-size="10px" text-anchor="start" font-weight="400" size="10px" anchor="start" weight="400" fill="#333333" x="33.40447998046875" y="182.60824704170227" style="display: none;"><tspan id="SvgjsTspan16059" dy="13" x="33.40447998046875">Created on AvatarMaker.com</tspan></text></g><defs id="SvgjsDefs16006"></defs></svg>